<?xml version="1.0" encoding="utf-8"?>
<!-- Svg Vector Icons : http://www.onlinewebfonts.com/icon -->
<!DOCTYPE svg PUBLIC "-//W3C//DTD SVG 1.1//EN" "http://www.w3.org/Graphics/SVG/1.1/DTD/svg11.dtd">
<svg version="1.1" xmlns="http://www.w3.org/2000/svg" xmlns:xlink="http://www.w3.org/1999/xlink" x="0px" y="0px" viewBox="0 0 1000 1000" enable-background="new 0 0 1000 1000" xml:space="preserve">
<metadata> Svg Vector Icons : http://www.onlinewebfonts.com/icon </metadata>
<g><g transform="translate(0.000000,511.000000) scale(0.100000,-0.100000)"><path d="M9289.8,4957.8C7370.8,4554,5436.3,3592.5,4230.7,2442.6l-146.1-140.4h-223c-926.8,0-2032.5-401.9-2917.1-1061.5c-350-261.5-771.1-642.3-815.3-736.5C73.4,387.1,98.3,264,198.3,175.5c23.1-23.1,398-238.4,832.6-478.8c434.6-240.4,796.1-444.2,803.8-451.9c9.6-7.7-23.1-90.4-71.1-184.6c-71.2-134.6-88.5-188.4-88.5-265.4v-96.1l909.5-915.3c498-501.9,936.5-934.5,969.2-959.5c92.3-67.3,223-50,407.7,53.9c78.8,44.2,151.9,76.9,161.5,73.1c9.6-1.9,217.3-365.4,463.4-805.7c244.2-440.3,463.4-821.1,482.6-842.2c86.5-96.1,211.5-121.1,326.9-65.4c107.7,50,548,551.9,817.2,930.7c615.3,861.5,980.7,1907.5,980.7,2801.7v223l130.8,136.5c880.7,930.7,1653.7,2263.3,2149.8,3713.1c228.8,663.4,451.9,1590.2,423,1747.9c-25,128.8-146.1,225-284.6,221.1C9578.3,5011.6,9432.1,4986.7,9289.8,4957.8z M9251.4,4323.3c0-98.1-323-1173-426.9-1419.1l-26.9-61.5l-532.6,532.6l-534.6,534.6l313.4,107.7c400,138.4,461.5,159.6,823,257.7C9209.1,4369.4,9251.4,4375.2,9251.4,4323.3z M7866.9,2965.7l699.9-699.9L8389.9,1910C7432.3-26.4,6232.4-1218.6,3990.3-2462.7c-117.3-65.4-221.1-119.2-230.7-119.2c-25,0-1449.9,1428.7-1449.9,1453.7c0,32.7,471.1,848,671.1,1159.5c1049.9,1642.2,2144.1,2636.3,3809.3,3463.2c192.3,94.2,355.7,173.1,361.5,173.1C7159.3,3667.5,7480.4,3352.2,7866.9,2965.7z M3521.1,1717.7c0-3.9-57.7-75-126.9-157.7c-338.4-403.8-744.2-980.7-1082.6-1542.2l-178.8-292.3l-59.6,36.5c-34.6,19.2-315.4,175-623,348.1c-309.6,171.1-567.3,319.2-573,326.9c-17.3,28.8,342.3,315.4,646.1,517.3c455.7,303.8,955.7,532.6,1428.7,657.6C3213.5,1679.3,3521.1,1736.9,3521.1,1717.7z M6578.5-1593.5c-111.5-623-355.7-1213.3-740.3-1786.4c-171.2-257.7-475-644.2-505.7-644.2c-7.7,0-140.4,232.7-296.1,515.3c-157.7,282.7-315.4,567.3-351.9,632.6l-65.4,119.2l215.4,128.8c544.2,326.9,1126.8,730.7,1538.3,1067.2c126.9,105.8,234.6,188.4,238.4,184.6C6613.2-1380.1,6599.7-1478.2,6578.5-1593.5z"/><path d="M6449.7,2833c-434.6-105.8-759.5-500-788.4-953.8c-38.5-623,480.7-1148,1099.9-1109.5c648,40.4,1099.9,630.7,969.1,1267.2c-76.9,369.2-390.4,698-759.5,792.2C6830.4,2865.7,6590.1,2867.6,6449.7,2833z M6915.1,2252.3c94.2-44.2,184.6-134.6,230.8-230.7c53.8-107.7,51.9-317.3-3.9-423c-101.9-192.3-323-301.9-524.9-261.5c-196.1,42.3-346.1,192.3-388.4,388.4c-48.1,238.4,101.9,478.8,350,559.6C6651.6,2310,6834.3,2290.7,6915.1,2252.3z"/><path d="M1357.9-1878.1c-30.8-15.4-307.7-276.9-611.5-582.6C233-2976.1,190.6-3024.2,181-3097.2c-21.1-153.8,103.8-269.2,267.3-248.1c75,9.6,117.3,48.1,634.6,565.3c386.5,386.5,559.6,573,574.9,619.2C1717.4-1982,1527.1-1801.2,1357.9-1878.1z"/><path d="M1473.2-3103c-59.6-32.7-1105.7-1078.8-1136.4-1136.5c-86.5-165.4,67.3-367.3,253.8-334.6c65.4,11.5,142.3,82.7,636.5,574.9c492.3,494.2,563.4,571.1,574.9,636.5C1834.7-3181.9,1629-3018.4,1473.2-3103z"/><path d="M2684.7-3253c-30.8-19.2-301.9-282.7-600-582.6c-542.3-544.2-544.2-546.1-544.2-626.9c0-111.5,42.3-184.6,126.9-225c148.1-69.2,153.8-65.4,763.4,542.3c303.8,303.8,563.4,571.1,575,590.3c30.8,55.8,21.1,175-15.4,234.6c-36.5,55.8-132.7,103.8-203.8,103.8C2761.6-3216.5,2717.4-3233.8,2684.7-3253z"/></g></g>
</svg>