<svg cache-id="3249554b089441d4a2818af6d1fc3622" id="eSYyWmDrIUP1" xmlns="http://www.w3.org/2000/svg" xmlns:xlink="http://www.w3.org/1999/xlink" viewBox="0 0 64 64" shape-rendering="geometricPrecision" text-rendering="geometricPrecision"><ellipse rx="6.4" ry="6.4" transform="matrix(4.399344 0 0 4.39934 31.4 31.4)" fill="none" stroke="#000" stroke-width="0.01"/><ellipse rx="2.565" ry="2.5" transform="matrix(1 0 0 1.199677 3.254488 31.350766)" fill="#fff" stroke-width="0"/><g transform="matrix(.035355-.035355 0.035355 0.035355 1.13225 31.453352)"><path d="M63.999954,8.899248c0-2.7852-.793999-4.9893-2.359398-6.5498-6.284202-6.260799-22.806602.396501-37.621101,15.1611-.5383.5366-1.030298,1.1086-1.503399,1.694801-.1553-.064202-.333999-.121601-.539499-.169401-4.266602-.997099-17.960001,1.329101-21.946301,17.2549-.102588.408199.0615.835899.4101,1.0713.169.1152.364312.171799.5596.171799.206,0,.4121-.0634.5869-.190399c5.4106-3.924801,9.7512-5.503399,13.540301-4.922299-.261489.474098-.526901.936501-.801001,1.378399-.245199.3955-.185599.9072.143512,1.235302l1.569088,1.563999-2.9372,2.9263c-.188499.1875-.293999.442299-.293999.708001c0,.265598.1055.5205.293999.708l9.829112,9.796798c.195288.194401.450089.292.706.292s.510788-.097599.706089-.292l2.941099-2.931598l1.5735,1.568397c.193401.192303.448313.292.7061.292.180599,0,.362301-.048901.524401-.148498.4133-.254902.842298-.502499,1.283699-.746102.650902,3.8079-.9258,8.176102-4.913599,13.637703-.248001.339897-.2568.798798-.022501,1.147499.188499.281201.502001.442398.830101.442398.08011,0,.161112-.0098.241199-.0293c15.940499-3.963898,18.295914-17.609398,17.3135-21.8653-.060101-.2597-.138699-.464199-.2239-.6455.635498-.502197,1.2547-1.026798,1.833313-1.6035C57.103455,29.218548,63.999954,17.066248,63.999954,8.899248ZM16.057556,30.548649c-3.901399-.8223-8.188499.3213-13.279299,3.5625c2.5039-6.9482,7.064499-10.230501,10.6426-11.7764c2.6826-1.158201,5.123998-1.482401,6.686498-1.482401.419001,0,.773402.0234,1.053702.059601l-5.103501,9.6367Zm7.579111,18.069298L15.224556,40.23325l2.230499-2.221703l7.2675,7.242302l1.1446,1.140499-2.230488,2.223599Zm17.896487,1.955101c-1.546898,3.583-4.841797,8.148399-11.836899,10.651401c3.246101-5.069401,4.393501-9.338901,3.570301-13.2295l9.673797-5.089901c.173802,1.314499.046902,4.298901-1.407199,7.668Zm-6.8438-5.708c-1.758686.846702-3.433598,1.651401-4.970686,2.543899L16.436457,34.17165c.717298-1.228203,1.380399-2.562101,2.052-3.939901l4.060798-7.667101c.849902-1.3156,1.7915-2.5507,2.8823-3.6381c13.552801-13.5078,29.485399-20.450199,34.7969-15.161099c1.1758,1.171899,1.771499,2.899399,1.771499,5.133799c0,7.544901-6.825199,19.417-16.982399,29.541003-2.829101,2.819297-6.641601,4.652297-10.328201,6.424797Z"/><path d="M42.724556,12.853349c-1.139599,1.133799-1.767601,2.6426-1.767601,4.248c0,1.606499.628002,3.115299,1.767601,4.2491c1.174801,1.168899,2.7178,1.7539,4.2607,1.7539s3.085999-.585001,4.2598-1.7539c1.139698-1.133801,1.766613-2.642601,1.766613-4.2491c0-1.6054-.626915-3.114201-1.766613-4.248-2.347603-2.3379-6.170902-2.3379-8.5205,0Zm7.110397,7.0791c-1.572284,1.5644-4.127998,1.5644-5.700199,0-.7588-.755901-1.177799-1.760801-1.177799-2.8311c0-1.0693.418999-2.074201,1.177799-2.8301.786103-.7822,1.818302-1.1728,2.850502-1.1728s2.0635.3906,2.849697,1.1728c.758713.755899,1.176716,1.7608,1.176716,2.8301c0,1.070299-.418003,2.075199-1.176716,2.8311Z"/><path d="M16.464756,47.147247c-.389601-.391597-1.0224-.391597-1.414-.001899L5.055668,57.10725c-.390712.389599-.392612,1.0224-.002,1.413998.195288.1963.451188.294002.708.294002.254888,0,.510788-.097702.706088-.292003l9.9951-9.961899c.390601-.389698.392599-1.022499.0019-1.414101Z"/><path d="M5.724556,51.97345c.2549,0,.5107-.097702.706112-.292l6.582-6.560501c.390588-.389702.391588-1.022499.001888-1.414101s-1.0224-.392601-1.414-.001999l-6.5821,6.560601c-.3906.389598-.3916,1.022499-.0019,1.4141.1953.196198.4512.2939.708.2939Z"/><path d="M18.501856,50.583748l-6.582,6.5606c-.3906.389599-.3916,1.022499-.0019,1.414101.195301.196201.4511.293899.708001.293899.254799,0,.51071-.097698.705999-.291999l6.582101-6.560502c.390612-.389698.391611-1.022499.0019-1.4141-.389601-.391598-1.022501-.392597-1.414101-.001999Z"/></g></svg>
